<svg width="13" height="16" viewBox="0 0 13 16" fill="none" xmlns="http://www.w3.org/2000/svg">
<path d="M12.3907 8.29443C11.2304 5.27903 7.09901 5.11643 8.09675 0.733751C8.17066 0.40856 7.8233 0.157277 7.54245 0.327263C4.85963 1.90887 2.93066 5.07948 4.54922 9.23305C4.68225 9.57302 4.28315 9.89082 3.99492 9.6691C2.6572 8.65658 2.51678 7.20061 2.63503 6.15852C2.67937 5.7742 2.17681 5.58944 1.96248 5.90724C1.45991 6.67587 0.949951 7.91751 0.949951 9.78735C1.2308 13.9261 4.7266 15.1973 5.98301 15.3599C7.77895 15.589 9.72271 15.2565 11.1195 13.9779C12.6568 12.5515 13.2185 10.2751 12.3907 8.29443ZM5.53218 12.012C6.59644 11.7533 7.14335 10.9846 7.29117 10.3047C7.53506 9.24783 6.58166 8.21313 7.22465 6.54284C7.46854 7.9249 9.64141 8.78961 9.64141 10.2973C9.70053 12.1672 7.67548 13.7709 5.53218 12.012Z" fill="#FC6E6A"/>
</svg>
